<svg width="31" height="30" viewBox="0 0 31 30" fill="none" xmlns="http://www.w3.org/2000/svg">
<path d="M12.92 26H12.08V22.52H9.8V26H8.96V22.52H6.68V26H5.84V21.8H6.68V22.4L7.28 21.8H8.96C9.448 21.8 9.724 22.004 9.788 22.412L10.4 21.8H12.08C12.312 21.8 12.508 21.884 12.668 22.052C12.836 22.212 12.92 22.408 12.92 22.64V26ZM15.4456 21.08H14.6056V20.12H15.4456V21.08ZM15.4456 26H14.6056V22.4L15.4456 21.56V26ZM21.3252 26H20.4852V22.52H17.9652V26H17.1252V21.8H17.9652V22.4L18.5652 21.8H20.4852C20.7172 21.8 20.9132 21.884 21.0732 22.052C21.2412 22.212 21.3252 22.408 21.3252 22.64V26ZM26.428 21.8L25.696 22.52H23.668V23.48H25.348C25.58 23.48 25.776 23.564 25.936 23.732C26.104 23.892 26.188 24.088 26.188 24.32V25.16C26.188 25.392 26.104 25.592 25.936 25.76C25.776 25.92 25.58 26 25.348 26H22.828V25.28H25.348V24.2H23.668C23.436 24.2 23.236 24.12 23.068 23.96C22.908 23.792 22.828 23.592 22.828 23.36V22.64C22.828 22.408 22.908 22.212 23.068 22.052C23.236 21.884 23.436 21.8 23.668 21.8H26.428Z" fill="black"/>
<path d="M13.7 17H6.7V14.9L12.1 10.94V8.6H8.3V10H6.7V8.6C6.7 8.21333 6.83333 7.88667 7.1 7.62C7.38 7.34 7.71333 7.2 8.1 7.2H12.3C12.6867 7.2 13.0133 7.34 13.28 7.62C13.56 7.88667 13.7 8.21333 13.7 8.6V11.5L8.4 15.4V15.6H13.7V17ZM24.0906 15.6C24.0906 15.9867 23.9506 16.32 23.6706 16.6C23.404 16.8667 23.0773 17 22.6906 17H18.4906C18.104 17 17.7706 16.8667 17.4906 16.6C17.224 16.32 17.0906 15.9867 17.0906 15.6V14.2H18.6906V15.6H22.4906V11.6H17.0906V7.2H24.0906V8.6H18.4906V10.2H22.6906C23.0773 10.2 23.404 10.34 23.6706 10.62C23.9506 10.8867 24.0906 11.2133 24.0906 11.6V15.6Z" fill="black"/>
</svg>
